{
	"asset":{
		"generator":"Khronos glTF Blender I/O v4.5.48",
		"version":"2.0"
	},
	"scene":0,
	"scenes":[
		{
			"name":"Scene",
			"nodes":[
				0,
				1,
				2,
				3
			]
		}
	],
	"nodes":[
		{
			"mesh":0,
			"name":"Torus",
			"rotation":[
				0,
				-0.001492624287493527,
				0,
				1
			],
			"translation":[
				-0.0002713862049859017,
				0.002073778538033366,
				-0.0020737778395414352
			]
		},
		{
			"mesh":1,
			"name":"Sphere",
			"translation":[
				3.758666753768921,
				1.7966758012771606,
				0.668267548084259
			]
		},
		{
			"mesh":2,
			"name":"Sphere.001",
			"translation":[
				2.1649255752563477,
				1.9054911136627197,
				3.537477970123291
			]
		},
		{
			"mesh":3,
			"name":"Sphere.002",
			"translation":[
				-1.0585534572601318,
				1.2276418209075928,
				3.4235687255859375
			]
		}
	],
	"animations":[
		{
			"channels":[
				{
					"sampler":0,
					"target":{
						"node":0,
						"path":"translation"
					}
				},
				{
					"sampler":1,
					"target":{
						"node":0,
						"path":"rotation"
					}
				}
			],
			"name":"TorusAction",
			"samplers":[
				{
					"input":13,
					"interpolation":"LINEAR",
					"output":14
				},
				{
					"input":13,
					"interpolation":"LINEAR",
					"output":15
				}
			]
		},
		{
			"channels":[
				{
					"sampler":0,
					"target":{
						"node":2,
						"path":"translation"
					}
				}
			],
			"name":"Sphere.001Action",
			"samplers":[
				{
					"input":16,
					"interpolation":"LINEAR",
					"output":17
				}
			]
		}
	],
	"materials":[
		{
			"doubleSided":true,
			"name":"MAGNETRON_TORUS_ANIM"
		},
		{
			"doubleSided":true,
			"name":"Material.001"
		},
		{
			"doubleSided":true,
			"emissiveFactor":[
				0,
				0.26885730028152466,
				1
			],
			"name":"Material",
			"pbrMetallicRoughness":{
				"baseColorFactor":[
					0,
					0,
					0,
					1
				]
			}
		},
		{
			"doubleSided":true,
			"name":"Material.002"
		}
	],
	"meshes":[
		{
			"name":"Torus",
			"primitives":[
				{
					"attributes":{
						"POSITION":0,
						"NORMAL":1
					},
					"indices":2,
					"material":0
				}
			]
		},
		{
			"name":"Sphere",
			"primitives":[
				{
					"attributes":{
						"POSITION":3,
						"NORMAL":4,
						"TEXCOORD_0":5
					},
					"indices":6,
					"material":1
				}
			]
		},
		{
			"name":"Sphere.001",
			"primitives":[
				{
					"attributes":{
						"POSITION":7,
						"NORMAL":8,
						"TEXCOORD_0":9
					},
					"indices":6,
					"material":2
				}
			]
		},
		{
			"name":"Sphere.002",
			"primitives":[
				{
					"attributes":{
						"POSITION":10,
						"NORMAL":11,
						"TEXCOORD_0":12
					},
					"indices":6,
					"material":3
				}
			]
		}
	],
	"accessors":[
		{
			"bufferView":0,
			"componentType":5126,
			"count":1024,
			"max":[
				2,
				0.7999999523162842,
				2
			],
			"min":[
				-2,
				-0.7999999523162842,
				-2
			],
			"type":"VEC3"
		},
		{
			"bufferView":1,
			"componentType":5126,
			"count":1024,
			"type":"VEC3"
		},
		{
			"bufferView":2,
			"componentType":5123,
			"count":6144,
			"type":"SCALAR"
		},
		{
			"bufferView":3,
			"componentType":5126,
			"count":559,
			"max":[
				0.9999997019767761,
				1,
				0.9999993443489075
			],
			"min":[
				-0.9999990463256836,
				-1,
				-1
			],
			"type":"VEC3"
		},
		{
			"bufferView":4,
			"componentType":5126,
			"count":559,
			"type":"VEC3"
		},
		{
			"bufferView":5,
			"componentType":5126,
			"count":559,
			"type":"VEC2"
		},
		{
			"bufferView":6,
			"componentType":5123,
			"count":2880,
			"type":"SCALAR"
		},
		{
			"bufferView":7,
			"componentType":5126,
			"count":559,
			"max":[
				0.9999997019767761,
				1,
				0.9999993443489075
			],
			"min":[
				-0.9999990463256836,
				-1,
				-1
			],
			"type":"VEC3"
		},
		{
			"bufferView":8,
			"componentType":5126,
			"count":559,
			"type":"VEC3"
		},
		{
			"bufferView":9,
			"componentType":5126,
			"count":559,
			"type":"VEC2"
		},
		{
			"bufferView":10,
			"componentType":5126,
			"count":559,
			"max":[
				0.9999997019767761,
				1,
				0.9999993443489075
			],
			"min":[
				-0.9999990463256836,
				-1,
				-1
			],
			"type":"VEC3"
		},
		{
			"bufferView":11,
			"componentType":5126,
			"count":559,
			"type":"VEC3"
		},
		{
			"bufferView":12,
			"componentType":5126,
			"count":559,
			"type":"VEC2"
		},
		{
			"bufferView":13,
			"componentType":5126,
			"count":2011,
			"max":[
				83.75
			],
			"min":[
				0
			],
			"type":"SCALAR"
		},
		{
			"bufferView":14,
			"componentType":5126,
			"count":2011,
			"type":"VEC3"
		},
		{
			"bufferView":15,
			"componentType":5126,
			"count":2011,
			"type":"VEC4"
		},
		{
			"bufferView":16,
			"componentType":5126,
			"count":30,
			"max":[
				1.25
			],
			"min":[
				0.041666666666666664
			],
			"type":"SCALAR"
		},
		{
			"bufferView":17,
			"componentType":5126,
			"count":30,
			"type":"VEC3"
		}
	],
	"bufferViews":[
		{
			"buffer":0,
			"byteLength":12288,
			"byteOffset":0,
			"target":34962
		},
		{
			"buffer":0,
			"byteLength":12288,
			"byteOffset":12288,
			"target":34962
		},
		{
			"buffer":0,
			"byteLength":12288,
			"byteOffset":24576,
			"target":34963
		},
		{
			"buffer":0,
			"byteLength":6708,
			"byteOffset":36864,
			"target":34962
		},
		{
			"buffer":0,
			"byteLength":6708,
			"byteOffset":43572,
			"target":34962
		},
		{
			"buffer":0,
			"byteLength":4472,
			"byteOffset":50280,
			"target":34962
		},
		{
			"buffer":0,
			"byteLength":5760,
			"byteOffset":54752,
			"target":34963
		},
		{
			"buffer":0,
			"byteLength":6708,
			"byteOffset":60512,
			"target":34962
		},
		{
			"buffer":0,
			"byteLength":6708,
			"byteOffset":67220,
			"target":34962
		},
		{
			"buffer":0,
			"byteLength":4472,
			"byteOffset":73928,
			"target":34962
		},
		{
			"buffer":0,
			"byteLength":6708,
			"byteOffset":78400,
			"target":34962
		},
		{
			"buffer":0,
			"byteLength":6708,
			"byteOffset":85108,
			"target":34962
		},
		{
			"buffer":0,
			"byteLength":4472,
			"byteOffset":91816,
			"target":34962
		},
		{
			"buffer":0,
			"byteLength":8044,
			"byteOffset":96288
		},
		{
			"buffer":0,
			"byteLength":24132,
			"byteOffset":104332
		},
		{
			"buffer":0,
			"byteLength":32176,
			"byteOffset":128464
		},
		{
			"buffer":0,
			"byteLength":120,
			"byteOffset":160640
		},
		{
			"buffer":0,
			"byteLength":360,
			"byteOffset":160760
		}
	],
	"buffers":[
		{
			"byteLength":161120,
			"uri":"glbtest02_01.bin"
		}
	]
}
